# xmcd CD database file
#
# Track frame offsets:
#	150
#	36945
#	47687
#	71200
#	92587
#	162800
#	176155
#	192670
#	205677
#	216827
#	228775
#	244175
#	255127
#
# Disc length: 3710 seconds
#
# Revision: 0
# Processed by: cddbd v1.5.1PL0 Copyright (c) Steve Scherf et al.
# Submitted via: CDex 1.51
#
DISCID=b10e7c0d
DTITLE=Neil Young and Crazy Horse - Live At Santa Monica Civic Auditorium
DYEAR=1969
DGENRE=Rock and Roll
TTITLE0=Down By The River
TTITLE1=Wonderin'
TTITLE2=Let's Go Down Town
TTITLE3=Cinamon Girl
TTITLE4=Cowgirl In The Sand
TTITLE5=Everybody Knows This Nowhere
TTITLE6=Winterlong
TTITLE7=On The Way Home
TTITLE8=I Am A Child
TTITLE9=Everybody Is Alone
TTITLE10=I Believe In You
TTITLE11=Birds
TTITLE12=Clancy Can't Even Sing
EXTD=YEAR: 1969
EXTT0=
EXTT1=
EXTT2=
EXTT3=
EXTT4=
EXTT5=
EXTT6=
EXTT7=
EXTT8=
EXTT9=
EXTT10=
EXTT11=
EXTT12=
PLAYORDER=
